<?xml version="1.0" standalone="no"?>
<!DOCTYPE svg PUBLIC "-//W3C//DTD SVG 20010904//EN"
 "http://www.w3.org/TR/2001/REC-SVG-20010904/DTD/svg10.dtd">
<svg version="1.0" xmlns="http://www.w3.org/2000/svg"
 width="295.000000pt" height="286.000000pt" viewBox="0 0 295.000000 286.000000"
 preserveAspectRatio="xMidYMid meet">

<g transform="translate(0.000000,286.000000) scale(0.100000,-0.100000)"
fill="#000000" stroke="none">
<path d="M851 2738 c-125 -8 -155 -13 -220 -39 -101 -40 -199 -107 -266 -182
-73 -80 -142 -218 -155 -307 -5 -36 -14 -311 -20 -611 -17 -843 0 -985 135
-1174 86 -121 191 -194 361 -251 l109 -37 695 7 c514 5 715 10 770 20 96 17
194 67 285 143 93 78 156 163 195 265 47 121 53 239 47 983 -6 698 -4 681 -74
825 -55 114 -175 229 -311 299 -102 52 -104 52 -210 57 -229 8 -1205 10 -1341
2z m524 -833 l190 -255 78 78 c43 42 148 152 233 244 100 107 166 170 186 177
38 13 98 14 98 2 0 -14 -53 -73 -304 -345 -121 -132 -220 -243 -219 -247 2 -4
114 -158 251 -341 303 -407 338 -456 328 -465 -3 -4 -100 -9 -214 -11 l-207
-3 -177 238 c-97 131 -191 254 -208 273 l-30 35 -72 -75 c-39 -41 -152 -161
-250 -267 -99 -106 -187 -194 -196 -197 -9 -3 -38 -2 -63 2 l-45 7 254 275
c308 334 308 334 295 363 -6 12 -113 159 -238 327 -218 293 -305 413 -305 424
0 9 70 13 250 14 l176 2 189 -255z"/>
<path d="M965 2040 c-6 -10 107 -166 608 -838 l271 -362 93 0 c59 0 93 4 93
11 0 11 -169 242 -614 837 l-270 362 -88 0 c-48 0 -90 -4 -93 -10z"/>
</g>
</svg>
